# xmcd
#
# Track frame offsets: 
#        150
#        12472
#        22237
#        39756
#        50562
#        63788
#        66055
#        80085
#        92240
#        111941
#        119731
#        130481
#        153455
#        166973
#        172069
#
# Disc length: 2528 seconds
#
# Revision: 0
# Processed by: cddbd v1.5.1PL2 Copyright (c) Steve Scherf et al.
# Submitted via: ExactAudioCopy v0.95b3
#
DISCID=d409de0f
DTITLE=Robbie Fulks - The Very Best Of Robbie Fulks
DYEAR=1999
DGENRE=Country
TTITLE0=Jean Arthur
TTITLE1=Sleepin' On The Job Of Love
TTITLE2=Roots Rock Weirdoes
TTITLE3=May The Best Man Win
TTITLE4=Hamilton County Breakdown
TTITLE5=Gravid And Tense
TTITLE6=Parallel Bars
TTITLE7=Love Ain't Nothin'
TTITLE8=I Just Want To Meet The Man
TTITLE9=Wedding Of The Bugs
TTITLE10=You Break It - You Pay
TTITLE11=White Man's Bourbon
TTITLE12=That Bangle Girl
TTITLE13=Jello Goodbye
TTITLE14=Leaving on a Jet Plane
EXTD=
EXTT0=
EXTT1=
EXTT2=
EXTT3=
EXTT4=
EXTT5=
EXTT6=
EXTT7=
EXTT8=
EXTT9=
EXTT10=
EXTT11=
EXTT12=
EXTT13=
EXTT14=
PLAYORDER=
